<svg xmlns="http://www.w3.org/2000/svg" width="20.278" height="20.278" viewBox="0 0 20.278 20.278">
  <g id="local_offer_black_24dp" transform="translate(-2.028 -2.028)">
    <path d="M21.68,11.713,12.555,2.588A2.015,2.015,0,0,0,11.125,2h-7.1A2.034,2.034,0,0,0,2,4.028v7.1a2.023,2.023,0,0,0,.6,1.44l9.125,9.125a2.015,2.015,0,0,0,1.43.588,1.982,1.982,0,0,0,1.43-.6l7.1-7.1a1.982,1.982,0,0,0,.6-1.43A2.048,2.048,0,0,0,21.68,11.713ZM13.153,20.26,4.028,11.125v-7.1h7.1v-.01l9.125,9.125Z" transform="translate(0.028 0.028)" fill="#ff7e00"/>
    <circle cx="1.5" cy="1.5" r="1.5" transform="translate(5 5)" fill="#ff7e00"/>
  </g>
</svg>
